<svg width="57" height="71" viewBox="0 0 57 71" fill="none" xmlns="http://www.w3.org/2000/svg">
<g clip-path="url(#clip0_37_1509)">
<path d="M53.664 42.6138C53.1892 43.1393 52.6917 43.6628 52.21 44.169C50.9331 45.4378 49.7664 46.8117 48.7225 48.2758C47.6693 49.9239 46.7142 51.6315 45.862 53.3904C45.3875 54.3233 44.8965 55.2881 44.3822 56.2187L44.0946 56.7392C42.9085 58.8846 41.6841 61.1029 40.3322 63.1943C39.5927 64.2688 38.6809 65.216 37.6332 65.998C35.6953 67.4743 33.545 68.6532 31.2544 69.4953C28.821 70.4612 26.2244 70.9569 23.604 70.9559C20.6462 70.9202 17.7178 70.3716 14.9502 69.335C12.9242 68.574 11.0508 67.4609 9.41755 66.0481C7.25484 64.2299 5.61469 61.9016 4.09942 58.4992C2.51791 54.9485 1.97657 51.122 1.45303 47.4219C1.29785 46.3255 1.13772 45.1917 0.952553 44.0845C0.784187 42.9207 0.690948 41.7478 0.672497 40.5722C0.643833 39.798 0.614178 38.9977 0.540703 38.2187C-0.0579605 31.9226 0.106121 26.272 1.04184 20.9431C1.35189 19.1137 1.8382 17.318 2.49386 15.5809C3.60322 12.7016 6.30627 10.9046 9.07061 11.2066C9.59184 11.2815 10.1042 11.4079 10.6004 11.5839C10.778 11.6399 10.9572 11.6968 11.1391 11.7498C11.1766 11.5607 11.2096 11.3745 11.2419 11.1919C11.3167 10.686 11.434 10.1872 11.5921 9.70061C11.691 9.42283 11.7865 9.1421 11.8824 8.86072C12.2148 7.74645 12.6728 6.67304 13.2477 5.66081C13.5772 5.12023 14.0207 4.657 14.5479 4.30301C15.075 3.94906 15.6731 3.7127 16.301 3.61032C16.9775 3.50444 17.669 3.54328 18.3293 3.72418C18.9896 3.90508 19.6031 4.2239 20.1293 4.65929C20.3599 4.84611 20.5807 5.04308 20.7839 5.22402C20.8169 5.25248 20.8472 5.28062 20.8785 5.3081C21.0666 4.96783 21.2488 4.63115 21.4291 4.29807C21.9098 3.41041 22.3638 2.57149 22.8811 1.75352C23.7377 0.397969 25.1136 -0.18083 26.8586 0.0776497C27.6174 0.172381 28.343 0.44371 28.9763 0.86956C29.6096 1.29541 30.1326 1.86374 30.5029 2.52829C31.0249 3.51377 31.4934 4.52632 31.9061 5.56167C32.0508 5.90751 32.1955 6.25237 32.3437 6.59396C32.3902 6.52001 32.4373 6.44378 32.4854 6.36492C32.7581 5.90797 33.0543 5.46525 33.3727 5.0385C34.6821 3.34137 36.4104 2.96803 38.3692 3.95878C40.6182 5.09543 41.0957 7.25357 41.2595 8.77794C41.4793 10.6732 41.5942 12.579 41.6037 14.4867C41.5929 18.8927 41.5411 23.3715 41.4914 27.7029C41.4694 29.5607 41.4491 31.4184 41.4304 33.2762C41.4241 33.908 41.4259 34.5398 41.4275 35.1716V35.8531C41.5062 35.7877 41.5833 35.7222 41.6607 35.6535C41.8126 35.5227 41.9702 35.3846 42.1388 35.2625C45.5032 32.8332 49.0849 31.9776 52.7839 32.7196C53.5869 32.8616 54.3407 33.2026 54.9753 33.7113C55.6098 34.2201 56.1046 34.8797 56.4135 35.6293C56.7168 36.4195 56.8171 37.2721 56.7053 38.1101C56.5935 38.9483 56.2732 39.7457 55.7733 40.4302C55.3998 40.9242 54.9751 41.3777 54.5062 41.7834C54.2208 42.0501 53.925 42.3249 53.664 42.6138ZM38.3537 39.8327C38.4196 35.9863 38.5033 31.9802 38.6084 27.5841C38.6295 26.6896 38.668 25.781 38.7049 24.9012C38.7745 23.2518 38.8466 21.5465 38.8084 19.8745C38.727 16.315 38.5027 12.698 38.2859 9.19998L38.2622 8.82244C38.1587 7.15018 37.5327 6.27037 36.2345 5.97819C35.1746 6.66528 34.5173 7.79736 34.2267 9.44148C33.7891 11.9105 33.4812 14.4006 33.3042 16.9014C33.0861 20.0251 32.92 23.206 32.7592 26.2819C32.6663 28.0677 32.573 29.8532 32.4695 31.638C32.4413 32.0533 32.3186 32.4568 32.1105 32.8181C31.9516 33.0988 31.6978 33.3145 31.394 33.427C31.0903 33.5392 30.7562 33.5415 30.4511 33.4326C30.1618 33.3786 29.9022 33.2219 29.7207 32.9915C29.5392 32.7612 29.4482 32.4734 29.4647 32.1814C29.467 31.759 29.4564 31.3357 29.4459 30.9123C29.4057 30.043 29.4214 29.1722 29.4927 28.3049C29.9639 23.7933 29.7296 19.2061 29.5033 14.7701L29.4519 13.7594C29.353 11.7962 29.1906 9.86944 29.0288 8.07776C28.8773 6.39568 28.3652 5.06333 27.4638 4.00422C26.9824 3.43917 26.5907 3.18072 26.2727 3.21115C25.9452 3.24387 25.618 3.57106 25.2434 4.24736C23.9914 6.503 23.6692 9.04395 23.4478 11.4534C22.946 16.9128 22.9417 22.6975 23.4336 30.2091C23.4606 30.6237 23.512 31.0464 23.5615 31.4554C23.6247 31.975 23.69 32.5125 23.7074 33.0465C23.7325 33.7902 23.5443 34.3225 23.1493 34.6294C22.7542 34.9363 22.1892 34.9893 21.4709 34.7842C20.9665 34.6622 20.5148 34.3818 20.1833 33.9845C19.8515 33.5877 19.6575 33.0952 19.6298 32.5803L19.5761 32.0123C19.4021 30.4727 19.3079 28.9252 19.294 27.376C19.329 23.3362 19.4459 19.229 19.5576 15.2589L19.585 14.2914C19.5972 13.8611 19.6397 13.4257 19.6805 13.0042C19.7968 11.8097 19.9065 10.6812 19.4057 9.56876L19.2433 9.20231C18.9919 8.56259 18.666 7.95428 18.2723 7.38968C18.1329 7.17596 17.9392 7.00268 17.7106 6.88738C17.4819 6.77211 17.2269 6.71894 16.9709 6.73331C16.7244 6.77888 16.4944 6.88862 16.3047 7.05123C16.1149 7.21385 15.9719 7.42354 15.8905 7.65896C15.4747 8.68489 15.1574 9.7475 14.9426 10.8327C14.1439 14.4033 14.2665 18.0963 14.3851 21.6662L14.3904 21.8226C14.5311 26.0574 14.591 30.2909 14.6352 34.2348C14.6494 35.5263 14.2237 36.0838 12.9483 36.4444C12.7255 36.5294 12.486 36.5631 12.2481 36.5422C12.0102 36.5216 11.7802 36.447 11.5756 36.3246C11.3931 36.1767 11.2468 35.9889 11.1486 35.7762C11.0501 35.5636 11.0023 35.3309 11.0086 35.097C10.9605 34.349 10.9615 33.5883 10.9622 32.8525C10.9622 32.5345 10.9622 32.2164 10.9595 31.8987C10.9523 31.2066 10.9457 30.5146 10.9401 29.8227C10.9269 28.338 10.9134 26.8528 10.888 25.3681C10.8752 24.6286 10.8505 23.8888 10.8257 23.1494C10.7816 21.8406 10.7365 20.4854 10.7598 19.1528C10.7859 17.7825 10.1579 16.6854 9.47488 15.7042C9.38625 15.5493 9.26731 15.4137 9.1253 15.3053C8.98297 15.197 8.8202 15.1181 8.64656 15.0734C8.44591 15.0567 8.24361 15.0797 8.05185 15.1411C7.86042 15.2025 7.68284 15.301 7.52963 15.431C6.67298 16.0263 6.08585 16.9316 5.89409 17.9523L5.66181 19.0886C5.11026 21.7827 4.54158 24.5687 4.17025 27.3309C3.71162 31.1009 3.69811 34.9111 4.13039 38.6843C4.17882 39.141 4.1831 39.6011 4.14356 40.0585C3.72809 44.5688 4.68194 49.1422 5.44864 52.8169C6.05785 55.7089 7.28483 58.437 9.04655 60.818C10.8284 63.2513 13.423 64.9641 16.9791 66.053C23.4728 68.0439 29.5504 66.9691 35.5601 62.7677C36.1529 62.3767 36.6714 61.8846 37.0918 61.3143C38.1188 59.8521 39.0688 58.3382 39.9379 56.7782C41.2604 54.3409 42.5948 51.7267 43.9035 49.0081C45.9133 44.8371 48.48 41.5524 51.7554 38.9667C52.3098 38.5266 52.7766 37.9874 53.1316 37.3768C53.2318 37.2221 53.2975 37.0474 53.3243 36.8654C53.3512 36.6832 53.3386 36.4974 53.2874 36.3203C53.2065 36.1201 53.0844 35.9385 52.9289 35.7877C52.7734 35.6365 52.5879 35.5197 52.3843 35.4438C51.7372 35.1575 51.0362 35.0113 50.3277 35.0142C49.9443 35.0155 49.5619 35.0525 49.1854 35.1245C46.3057 35.6611 44.3773 36.7248 43.1161 38.4723C42.6719 39.1669 42.3292 39.9207 42.098 40.7109C42.0284 40.9124 41.9586 41.1133 41.8861 41.311C41.6047 42.0789 41.2107 42.7902 40.2417 42.7964C39.3735 42.7938 38.7653 42.2768 38.5383 41.3568C38.4118 40.8585 38.3498 40.3464 38.3537 39.8324V39.8327Z" fill="black"/>
</g>
<defs>
<clipPath id="clip0_37_1509">
<rect width="57" height="71" fill="white"/>
</clipPath>
</defs>
</svg>
