<svg width="57" height="71" viewBox="0 0 57 71" fill="none" xmlns="http://www.w3.org/2000/svg">
<path d="M3.27457 42.6138C3.74936 43.1393 4.24688 43.6628 4.72858 44.169C6.00554 45.4378 7.1722 46.8117 8.21612 48.2758C9.26934 49.9239 10.2244 51.6315 11.0766 53.3904C11.5511 54.3233 12.0421 55.2881 12.5564 56.2187L12.844 56.7392C14.0301 58.8846 15.2545 61.1029 16.6064 63.1943C17.3459 64.2688 18.2577 65.216 19.3054 65.998C21.2433 67.4743 23.3936 68.6532 25.6842 69.4953C28.1176 70.4612 30.7142 70.9569 33.3346 70.9559C36.2924 70.9202 39.2208 70.3716 41.9884 69.335C44.0144 68.574 45.8878 67.4609 47.5211 66.0481C49.6838 64.2299 51.3239 61.9016 52.8392 58.4992C54.4207 54.9485 54.962 51.122 55.4856 47.4219C55.6408 46.3255 55.8009 45.1917 55.986 44.0845C56.1544 42.9207 56.2477 41.7478 56.2661 40.5722C56.2948 39.798 56.3244 38.9977 56.3979 38.2187C56.9966 31.9226 56.8325 26.272 55.8968 20.9431C55.5867 19.1137 55.1004 17.318 54.4447 15.5809C53.3354 12.7016 50.6323 10.9046 47.868 11.2066C47.3468 11.2815 46.8344 11.4079 46.3382 11.5839C46.1606 11.6399 45.9814 11.6968 45.7995 11.7498C45.762 11.5607 45.729 11.3745 45.6967 11.1919C45.6219 10.686 45.5046 10.1872 45.3465 9.70061C45.2476 9.42283 45.1521 9.1421 45.0562 8.86072C44.7238 7.74645 44.2658 6.67304 43.6908 5.66081C43.3614 5.12023 42.9179 4.657 42.3907 4.30301C41.8636 3.94906 41.2655 3.7127 40.6376 3.61032C39.9611 3.50444 39.2696 3.54328 38.6093 3.72418C37.949 3.90508 37.3355 4.2239 36.8093 4.65929C36.5787 4.84611 36.3579 5.04308 36.1547 5.22402C36.1217 5.25248 36.0914 5.28062 36.0601 5.3081C35.872 4.96783 35.6898 4.63115 35.5095 4.29807C35.0288 3.41041 34.5748 2.57149 34.0575 1.75352C33.2009 0.397969 31.825 -0.18083 30.08 0.0776497C29.3212 0.172381 28.5956 0.44371 27.9623 0.86956C27.329 1.29541 26.806 1.86374 26.4357 2.52829C25.9137 3.51377 25.4452 4.52632 25.0325 5.56167C24.8878 5.90751 24.7431 6.25237 24.5949 6.59396C24.5484 6.52001 24.5013 6.44378 24.4532 6.36492C24.1805 5.90797 23.8843 5.46525 23.5659 5.0385C22.2565 3.34137 20.5282 2.96803 18.5694 3.95878C16.3204 5.09543 15.8429 7.25357 15.6791 8.77794C15.4593 10.6732 15.3444 12.579 15.3349 14.4867C15.3457 18.8927 15.3975 23.3715 15.4472 27.7029C15.4692 29.5607 15.4895 31.4184 15.5082 33.2762C15.5145 33.908 15.5127 34.5398 15.5111 35.1716V35.8531C15.4324 35.7877 15.3553 35.7222 15.2779 35.6535C15.126 35.5227 14.9684 35.3846 14.7998 35.2625C11.4354 32.8332 7.85373 31.9776 4.15466 32.7196C3.35172 32.8616 2.5979 33.2026 1.96333 33.7113C1.32876 34.2201 0.833996 34.8797 0.525069 35.6293C0.221835 36.4195 0.121546 37.2721 0.233316 38.1101C0.345084 38.9483 0.665431 39.7457 1.16529 40.4302C1.53883 40.9242 1.96353 41.3777 2.43245 41.7834C2.71778 42.0501 3.01362 42.3249 3.27457 42.6138ZM18.5849 39.8327C18.519 35.9863 18.4353 31.9802 18.3302 27.5841C18.3091 26.6896 18.2706 25.781 18.2337 24.9012C18.1641 23.2518 18.092 21.5465 18.1302 19.8745C18.2116 16.315 18.4359 12.698 18.6527 9.19998L18.6764 8.82244C18.7799 7.15018 19.4059 6.27037 20.7041 5.97819C21.764 6.66528 22.4213 7.79736 22.7119 9.44148C23.1495 11.9105 23.4574 14.4006 23.6344 16.9014C23.8525 20.0251 24.0186 23.206 24.1794 26.2819C24.2723 28.0677 24.3656 29.8532 24.4691 31.638C24.4973 32.0533 24.62 32.4568 24.8281 32.8181C24.987 33.0988 25.2408 33.3145 25.5446 33.427C25.8483 33.5392 26.1824 33.5415 26.4875 33.4326C26.7768 33.3786 27.0364 33.2219 27.2179 32.9915C27.3994 32.7612 27.4904 32.4734 27.4739 32.1814C27.4716 31.759 27.4822 31.3357 27.4927 30.9123C27.5329 30.043 27.5172 29.1722 27.4459 28.3049C26.9747 23.7933 27.209 19.2061 27.4353 14.7701L27.4867 13.7594C27.5856 11.7962 27.748 9.86944 27.9098 8.07776C28.0613 6.39568 28.5734 5.06333 29.4748 4.00422C29.9562 3.43917 30.3479 3.18072 30.6659 3.21115C30.9934 3.24387 31.3206 3.57106 31.6952 4.24736C32.9472 6.503 33.2694 9.04395 33.4908 11.4534C33.9926 16.9128 33.9969 22.6975 33.505 30.2091C33.478 30.6237 33.4266 31.0464 33.3771 31.4554C33.3139 31.975 33.2486 32.5125 33.2312 33.0465C33.2061 33.7902 33.3943 34.3225 33.7893 34.6294C34.1844 34.9363 34.7494 34.9893 35.4677 34.7842C35.9721 34.6622 36.4238 34.3818 36.7553 33.9845C37.0871 33.5877 37.2811 33.0952 37.3088 32.5803L37.3625 32.0123C37.5365 30.4727 37.6307 28.9252 37.6446 27.376C37.6096 23.3362 37.4927 19.229 37.381 15.2589L37.3536 14.2914C37.3414 13.8611 37.2989 13.4257 37.2581 13.0042C37.1418 11.8097 37.0321 10.6812 37.5329 9.56876L37.6953 9.20231C37.9467 8.56259 38.2726 7.95428 38.6663 7.38968C38.8057 7.17596 38.9994 7.00268 39.228 6.88738C39.4567 6.77211 39.7117 6.71894 39.9677 6.73331C40.2142 6.77888 40.4442 6.88862 40.6339 7.05123C40.8237 7.21385 40.9667 7.42354 41.0481 7.65896C41.4639 8.68489 41.7812 9.7475 41.996 10.8327C42.7947 14.4033 42.6721 18.0963 42.5535 21.6662L42.5482 21.8226C42.4075 26.0574 42.3476 30.2909 42.3034 34.2348C42.2892 35.5263 42.7149 36.0838 43.9903 36.4444C44.2131 36.5294 44.4526 36.5631 44.6905 36.5422C44.9284 36.5216 45.1584 36.447 45.363 36.3246C45.5455 36.1767 45.6918 35.9889 45.79 35.7762C45.8885 35.5636 45.9362 35.3309 45.93 35.097C45.9781 34.349 45.9771 33.5883 45.9764 32.8525C45.9764 32.5345 45.9764 32.2164 45.9791 31.8987C45.9863 31.2066 45.9929 30.5146 45.9985 29.8227C46.0117 28.338 46.0252 26.8528 46.0506 25.3681C46.0634 24.6286 46.0881 23.8888 46.1129 23.1494C46.157 21.8406 46.2021 20.4854 46.1787 19.1528C46.1527 17.7825 46.7807 16.6854 47.4637 15.7042C47.5524 15.5493 47.6713 15.4137 47.8133 15.3053C47.9556 15.197 48.1184 15.1181 48.292 15.0734C48.4927 15.0567 48.695 15.0797 48.8867 15.1411C49.0782 15.2025 49.2558 15.301 49.409 15.431C50.2656 16.0263 50.8528 16.9316 51.0445 17.9523L51.2768 19.0886C51.8283 21.7827 52.397 24.5687 52.7683 27.3309C53.227 31.1009 53.2405 34.9111 52.8082 38.6843C52.7598 39.141 52.7555 39.6011 52.795 40.0585C53.2105 44.5688 52.2567 49.1422 51.49 52.8169C50.8808 55.7089 49.6538 58.437 47.892 60.818C46.1102 63.2513 43.5156 64.9641 39.9595 66.053C33.4658 68.0439 27.3882 66.9691 21.3785 62.7677C20.7857 62.3767 20.2672 61.8846 19.8468 61.3143C18.8198 59.8521 17.8698 58.3382 17.0007 56.7782C15.6782 54.3409 14.3438 51.7267 13.0351 49.0081C11.0253 44.8371 8.45859 41.5524 5.18323 38.9667C4.62881 38.5266 4.16204 37.9874 3.80699 37.3768C3.70683 37.2221 3.64113 37.0474 3.61428 36.8654C3.58739 36.6832 3.59998 36.4974 3.65118 36.3203C3.7321 36.1201 3.8542 35.9385 4.00972 35.7877C4.1652 35.6365 4.35067 35.5197 4.55428 35.4438C5.20142 35.1575 5.90242 35.0113 6.61086 35.0142C6.99428 35.0155 7.37671 35.0525 7.7532 35.1245C10.6329 35.6611 12.5613 36.7248 13.8225 38.4723C14.2667 39.1669 14.6094 39.9207 14.8406 40.7109C14.9102 40.9124 14.98 41.1133 15.0525 41.311C15.3339 42.0789 15.7279 42.7902 16.6969 42.7964C17.5651 42.7938 18.1733 42.2768 18.4003 41.3568C18.5268 40.8585 18.5888 40.3464 18.5849 39.8324V39.8327Z" fill="black"/>
</svg>
